Coordinates
version=1
nRows=11
nColumns=63
inDegrees=yes

Units are S.I. units (second, meters, Newtons, ...)
If the header above contains a line with 'inDegrees', this indicates whether rotational values are in degrees (yes) or radians (no).

endheader
time	pelvis_tilt	pelvis_list	pelvis_rotation	pelvis_tx	pelvis_ty	pelvis_tz	hip_flexion_r	hip_adduction_r	hip_rotation_r	knee_angle_r	knee_angle_r_beta	ankle_angle_r	subtalar_angle_r	mtp_angle_r	hip_flexion_l	hip_adduction_l	hip_rotation_l	knee_angle_l	knee_angle_l_beta	ankle_angle_l	subtalar_angle_l	mtp_angle_l	L5_S1_Flex_Ext	L5_S1_Lat_Bending	L5_S1_axial_rotation	L4_L5_Flex_Ext	L4_L5_Lat_Bending	L4_L5_axial_rotation	L3_L4_Flex_Ext	L3_L4_Lat_Bending	L3_L4_axial_rotation	L2_L3_Flex_Ext	L2_L3_Lat_Bending	L2_L3_axial_rotation	L1_L2_Flex_Ext	L1_L2_Lat_Bending	L1_L2_axial_rotation	L1_T12_Flex_Ext	L1_T12_Lat_Bending	L1_T12_axial_rotation	Abs_r3	Abs_r2	Abs_r1	Abs_t1	Abs_t2	neck_flexion	neck_bending	neck_rotation	arm_flex_r	arm_add_r	arm_rot_r	elbow_flex_r	pro_sup_r	wrist_flex_r	wrist_dev_r	arm_flex_l	arm_add_l	arm_rot_l	elbow_flex_l	pro_sup_l	wrist_flex_l	wrist_dev_l
      0.00000000	     -3.97146297	     -1.75898911	     94.50815567	      0.18785770	      0.83090515	      0.52993934	      6.64435575	     -4.61628786	      2.25505117	     17.70361244	      0.30898633	     43.05568984	     -6.79765362	      0.00000000	      4.69362037	      5.66073485	     19.09271149	      5.75597715	      0.10046075	     36.84018498	    -15.86920846	      0.00000000	      0.41612941	     -0.47220481	     -1.15780555	      0.77279393	     -0.62803240	     -1.23016839	      0.68365901	     -1.14811877	     -1.23016839	      0.47559431	     -1.14811877	     -1.01307985	      0.38641777	     -0.96292005	     -0.94071701	      0.23777635	     -0.73144525	     -0.86835416	      2.97237079	     -5.34167524	     -6.43936711	      0.00000000	      0.00000000	     24.08263032	      7.87863760	     -4.04204869	     24.64092459	     -6.99833243	     82.71014762	     57.40007526	     87.39990402	     17.28357882	     -2.78014275	      6.55746955	    -16.47720471	     49.40495511	     67.99438427	     66.76975993	      7.42147584	     13.96796146
      0.01694915	     -4.08475710	     -1.93750716	     93.99944600	      0.18896103	      0.83094447	      0.53085899	      7.13938943	     -4.72085275	      2.13058393	     17.99211036	      0.31402157	     42.95106619	     -6.22021021	      0.00000000	      5.11056595	      5.76110779	     18.69689998	      6.04339261	      0.10547710	     36.78941138	    -16.04480962	      0.00000000	      0.40469949	     -0.50537585	     -0.96701565	      0.75156742	     -0.67214988	     -1.02745413	      0.66488079	     -1.22877084	     -1.02745413	      0.46253105	     -1.22877084	     -0.84613870	      0.37580395	     -1.03056243	     -0.78570022	      0.23124529	     -0.78282719	     -0.72526174	      2.89072799	     -5.71691268	     -5.37825096	      0.00000000	      0.00000000	     24.56015041	      8.56931466	     -4.97922952	     22.21314817	     -8.15790042	     85.96933963	     62.79059832	      6.23975608	     -8.45989571	      5.13651316	      6.93075658	    -17.04745401	     48.58718250	     68.73111435	     68.38635960	      7.49245785	     13.52886656
      0.03389831	     -3.93901991	     -1.95195398	     93.79475812	      0.18906075	      0.83087502	      0.53170200	      7.31258061	     -4.56061547	      2.06388491	     18.10206910	      0.31594071	     42.77492311	     -6.10297902	      0.00000000	      5.33000839	      5.62740961	     18.58664485	      6.27302371	      0.10948492	     36.89420650	    -16.14394238	      0.00000000	      0.38206611	     -0.48514696	     -0.87094783	      0.70953497	     -0.64524546	     -0.92538207	      0.62769641	     -1.17958632	     -0.92538207	      0.43666335	     -1.17958632	     -0.76207935	      0.35478659	     -0.98931168	     -0.70764511	      0.21831257	     -0.75149264	     -0.65321087	      2.72906000	     -5.48807945	     -4.84395056	      0.00000000	      0.00000000	     24.85188089	      8.86405043	     -4.87855446	     22.03278712	     -8.04367066	     85.44429580	     61.92620087	      5.87333249	     -8.80030678	      4.78583521	      7.21329619	    -17.26865584	     47.99201096	     69.19868972	     68.28136738	      7.49215094	     13.26323408
      0.05084746	     -4.05342975	     -2.03236146	     93.32398161	      0.18951335	      0.83058946	      0.53229188	      7.68306173	     -4.70489959	      2.05125278	     18.43505935	      0.32175248	     42.96103280	     -5.52695342	      0.00000000	      5.62364646	      5.75434471	     17.93187127	      6.61204596	      0.11540197	     37.04118311	    -16.00473781	      0.00000000	      0.37508262	     -0.49997390	     -0.68719245	      0.69656594	     -0.66496529	     -0.73014198	      0.61622324	     -1.21563655	     -0.73014198	      0.42868193	     -1.21563655	     -0.60129339	      0.34830172	     -1.01954679	     -0.55834387	      0.21432221	     -0.77445958	     -0.51539434	      2.67917765	     -5.65580480	     -3.82195825	      0.00000000	      0.00000000	     25.18096152	      9.36307547	     -4.97856859	     21.64385217	     -8.23302260	     84.54566559	     62.05874407	      4.57151019	    -10.76062842	      4.64558552	      7.48410847	    -17.42804740	     47.71830215	     69.49495118	     67.25159611	      7.84695267	     13.08335946
      0.06779661	     -4.06351554	     -2.02862778	     93.20135220	      0.18948945	      0.83053588	      0.53269510	      7.78103913	     -4.76162083	      1.81846015	     18.56783117	      0.32406979	     43.08275517	     -5.09491415	      0.00000000	      5.80238804	      5.78789249	     17.55180236	      6.91858619	      0.12075211	     37.22886412	    -15.74175476	      0.00000000	      0.36112551	     -0.50554053	     -0.57942656	      0.67064619	     -0.67236890	     -0.61564072	      0.59329310	     -1.22917124	     -0.61564072	      0.41273035	     -1.22917124	     -0.50699824	      0.33534115	     -1.03089824	     -0.47078408	      0.20634712	     -0.78308228	     -0.43456992	      2.57948341	     -5.71877556	     -3.22259669	      0.00000000	      0.00000000	     25.44629674	      9.65720337	     -5.24963300	     21.47605872	     -8.46591321	     83.98473976	     61.95247302	      4.16958764	    -11.29783504	      5.48229057	      7.72392727	    -17.46660744	     47.69486352	     69.64494012	     65.74403749	      8.09839602	     13.39794520
      0.08474576	     -4.12288103	     -1.99873741	     93.15971150	      0.18955394	      0.83050464	      0.53265822	      7.74548627	     -4.86087386	      1.51531442	     18.62058233	      0.32499047	     43.24361635	     -4.69764536	      0.00000000	      5.80194422	      5.82717667	     17.12099627	      6.98537171	      0.12191774	     37.36523000	    -15.27576839	      0.00000000	      0.35504974	     -0.52139854	     -0.50083412	      0.65936287	     -0.69346006	     -0.53213625	      0.58331122	     -1.26772842	     -0.53213625	      0.40578635	     -1.26772842	     -0.43822986	      0.32969919	     -1.06323591	     -0.40692772	      0.20287542	     -0.80764634	     -0.37562559	      2.53608479	     -5.89816459	     -2.78548913	      0.00000000	      0.00000000	     25.53710549	      9.86322387	     -5.58918288	     21.29778557	     -8.67486235	     83.48156512	     61.84564002	      3.92659932	    -11.22852416	      7.04367508	      7.96144352	    -17.57905479	     48.00742517	     69.77406078	     64.27208991	      8.27171524	     13.83193215
      0.10169492	     -4.16268633	     -1.98747189	     93.21278599	      0.18944730	      0.83044459	      0.53247905	      7.64632528	     -4.88617028	      1.60102967	     18.59428742	      0.32453154	     43.30086714	     -4.93067620	      0.00000000	      5.81722133	      5.89954786	     17.52898215	      7.09822168	      0.12388734	     37.28017063	    -15.80805910	      0.00000000	      0.34921122	     -0.52827546	     -0.48526593	      0.64852016	     -0.70260636	     -0.51559505	      0.57371912	     -1.28444895	     -0.51559505	      0.39911351	     -1.28444895	     -0.42460769	      0.32427754	     -1.07725932	     -0.39427856	      0.19953929	     -0.81829869	     -0.36394944	      2.49438084	     -5.97595764	     -2.69890350	      0.00000000	      0.00000000	     25.69681599	     10.02372880	     -5.31811222	     21.11367378	     -8.82957043	     83.11746777	     61.90379399	      3.79493968	    -12.07373129	      8.47645069	      8.01542393	    -17.54847270	     48.21018495	     69.72407900	     62.83370749	      8.58189327	     14.61732849
      0.11864407	     -4.24874521	     -1.98164259	     93.32719888	      0.18930073	      0.83042345	      0.53193812	      7.45265249	     -4.99239887	      1.39143788	     18.48326062	      0.32259375	     43.36451702	     -4.90323493	      0.00000000	      5.76432376	      5.98768146	     17.50322533	      7.07141840	      0.12341953	     37.34807258	    -15.57715333	      0.00000000	      0.35226908	     -0.54053367	     -0.53194537	      0.65419891	     -0.71890978	     -0.56519196	      0.57874287	     -1.31425356	     -0.56519196	      0.40260833	     -1.31425356	     -0.46545220	      0.32711707	     -1.10225625	     -0.43220562	      0.20128655	     -0.83728665	     -0.39895903	      2.51622280	     -6.11462495	     -2.95852059	      0.00000000	      0.00000000	     25.66451215	     10.16665874	     -4.87651508	     20.96574137	     -8.76851993	     83.00311674	     61.70570838	      3.40295379	    -12.33862989	     10.14277701	      7.84654230	    -17.56731654	     48.39711571	     69.68900616	     62.52293503	      8.62450031	     15.11519492
      0.13559322	     -4.33860903	     -1.96553032	     93.52960644	      0.18889635	      0.83039470	      0.53125528	      7.22406905	     -5.13393519	      1.07815870	     18.40492424	      0.32122653	     43.37038309	     -4.88358250	      0.00000000	      5.62463368	      6.08844190	     17.82826032	      6.90458898	      0.12050781	     37.36744752	    -15.48561095	      0.00000000	      0.35703078	     -0.54546504	     -0.64127855	      0.66304186	     -0.72546851	     -0.68135846	      0.58656586	     -1.32624371	     -0.68135846	      0.40805048	     -1.32624371	     -0.56111873	      0.33153878	     -1.11231232	     -0.52103882	      0.20400739	     -0.84492535	     -0.48095891	      2.55023514	     -6.17040967	     -3.56659892	      0.00000000	      0.00000000	     25.55883757	     10.17900714	     -3.98984013	     20.86960672	     -8.60755468	     83.07509715	     61.52531823	      3.40421592	    -12.55199242	     11.14478568	      7.54348220	    -17.56418847	     48.47394708	     69.57357055	     62.70201788	      8.63434130	     15.62644334
      0.15254237	     -4.39167512	     -1.91058514	     93.81562475	      0.18838137	      0.83041683	      0.53046634	      6.85361478	     -5.19585272	      0.91317153	     18.17377156	      0.31719215	     43.32872558	     -5.19619621	      0.00000000	      5.47779144	      6.19119913	     18.78182651	      6.81997266	      0.11903098	     37.27696694	    -16.01798140	      0.00000000	      0.35691365	     -0.54265036	     -0.78351349	      0.66282433	     -0.72172498	     -0.83248309	      0.58637343	     -1.31940009	     -0.83248309	      0.40791661	     -1.31940009	     -0.68557431	      0.33143001	     -1.10657262	     -0.63660471	      0.20394046	     -0.84056541	     -0.58763512	      2.54939849	     -6.13856942	     -4.35766699	      0.00000000	      0.00000000	     25.37000178	     10.22581994	     -2.77512689	     20.77422149	     -8.38245052	     83.24715392	     61.34013425	      3.91422827	    -12.24897279	     11.04936471	      7.09885045	    -17.48253590	     48.30111127	     69.38478170	     63.44509241	      8.76126597	     15.95929985
      0.16949153	     -4.50428428	     -1.86739698	     94.13980533	      0.18778155	      0.83044166	      0.52970385	      6.50320305	     -5.37738599	      0.45091027	     17.98764784	      0.31394368	     43.30929344	     -5.12330628	      0.00000000	      5.29182981	      6.34322379	     19.62745364	      6.60519793	      0.11528245	     37.25757601	    -16.22301832	      0.00000000	      0.36028308	     -0.54832570	     -0.93563272	      0.66908171	     -0.72927318	     -0.99410977	      0.59190907	     -1.33319911	     -0.99410977	      0.41176753	     -1.33319911	     -0.81867863	      0.33455887	     -1.11814577	     -0.76020159	      0.20586575	     -0.84935651	     -0.70172454	      2.57346601	     -6.20276998	     -5.20370852	      0.00000000	      0.00000000	     25.07767745	     10.11786163	     -1.85994476	     20.69763089	     -8.08301602	     83.27096948	     60.86835214	      5.52561327	    -10.33079816	     10.40936792	      6.73872812	    -17.51435082	     48.35244728	     69.23793965	     63.75872675	      8.52012417	     16.22965298
